<svg xmlns="http://www.w3.org/2000/svg" width="84" height="63" fill="none" preserveAspectRatio="none" fill-rule="evenodd"><path d="M0 0H84V63H0V0V0Z" fill="#006c35"/><g fill="#fff"><path d="M21.164 17.854c-.087 1.477-.219 4.061.907 4.331 1.345.148.602-2.559 1.093-3.052.088-.246.252-.246.262.062v2.301c0 .738.437.96.765 1.107.35-.025.591 0 .722.369l.175 3.974s.809.271.853-2.227c.033-1.477-.262-2.695-.088-2.978 0-.283.328-.295.547-.16.35.271.503.615 1.05.492.831-.271 1.334-.726 1.345-1.44a6.39 6.39 0 0 0-.383-2.043c.044-.123-.153-.455-.109-.578.142.271.372.246.416 0-.142-.517-.361-1.021-.711-1.23-.295-.295-.732-.246-.875.369-.087.701.219 1.526.668 2.215.099.258.229.701.175 1.095-.241.16-.481.086-.689-.148 0 0-.656-.554-.656-.689.175-1.255.033-1.403-.066-1.76-.066-.48-.274-.64-.437-.96-.164-.197-.383-.197-.492 0-.295.566-.153 1.784.055 2.338.153.505.383.824.274.824-.087.283-.274.209-.416-.123a9.17 9.17 0 0 1-.229-2.141c-.054-.566-.12-1.772-.46-2.092-.196-.295-.492-.148-.602.123-.029.55-.018 1.101.033 1.649.219.91.295 1.723.404 2.646.033 1.243-.635.541-.602-.086a6.2 6.2 0 0 0-.033-2.387c-.109-.32-.229-.394-.503-.344-.208 0-.744.652-.897 1.76 0 0-.132.566-.186 1.071-.076.566-.404.984-.645-.074-.196-.775-.328-2.658-.656-2.215h-.011v.001zm3.664 6.042l-3.5 1.895c.033-.898 1.652-2.51 2.767-2.523.711.012.536.308.722.628h.011zm-.623 1.23c-1.837 5.352 4.32 6.103 5.009.221.066-.246.328-.48.373-.086-.142 5.328-4.769 5.685-5.556 4.011a5.75 5.75 0 0 1-.274-1.796c-.109-1.046-.602-.64-.678.394-.076.578-.055.738-.055 1.292.241 4.208 6.202 2.399 7.175-1.071.514-1.919-.087-3.334.186-3.334.59.714 1.422.098 1.608-.148.076-.123.274-.209.404-.049.459.369 1.268.197 1.444-.455.099-.652.175-1.317.197-1.993-.383.123-.656.209-.689.394l-.076.566c-.033.185-.35.185-.371-.049-.142-.738-.733-.824-1.093.308-.229.222-.668.271-.711-.061.055-.763-.219-.861-.765-.504l-.525-4.454c.219 0 .437.185.645-.111-.219-.8-.711-2.424-.984-2.547-.12-.172-.229-.062-.404-.012-.284.098-.547.369-.46.911l.886 6.398c.054.259-.142.615-.404.578-.437-.332-.547-1.009-1.313-.984-.547 0-1.159.677-1.236 1.317-.099.517-.131 1.071 0 1.514.383.517.842.468 1.247.357.328-.16.602-.529.722-.443.076.111.011 1.341-1.564 2.276-.951.492-1.717.591-2.122-.283-.252-.554.022-2.633-.612-2.153v-.004zm7.842-5.439c.361-.148 2.111-2.412 2.111-2.412l-.262-.246c-.099-.086-.087-.184 0-.271.437-.295.295-.911.077-1.206a.97.97 0 0 0-.477-.121.97.97 0 0 0-.475.133c-.307.332-.372.861-.132 1.181.229.123.46.394.307.541-.722.861-2.68 2.35-2.45 2.399.044.074 1.258.074 1.291 0h.011v.002zm-10.61 7.998c-.656 1.181-.711 2.941-.35 3.47.197.246.514.357.744.271.416-.197.602-1.144.503-1.477-.142-.246-.252-.283-.394-.086-.285.665-.404.209-.437-.16a9.68 9.68 0 0 1 .088-1.87c.076-.517 0-.369-.153-.148h-.001zm28.12-1.883c-.635-1.55-1.52-3.076-1.794-3.655l-2.713-4.43c-.678-.911 1.115.381-.219-1.44l-.973-.923c-.219-.172-.744-.492-.831.025a3.59 3.59 0 0 0 .043 1.095c.055.246.383.677.547.923 2.243 3.341 4.212 6.903 5.884 10.644.285-.16.219-1.981.055-2.239h0zm-2.789 5.143c-.131.16.307.837.875.837.94-.123 1.771-.714 2.538-2.289.311-.524.509-1.122.58-1.747.093-2.987-.12-5.976-.635-8.909-.033-.246 0-.541.022-.615.066-.086.274 0 .383-.209.163-.184-.437-1.723-.765-2.301-.109-.271-.165-.443-.361.024-.238.516-.351 1.093-.328 1.673.449 3.507.591 6.571.875 10.078.033.345-.011.837-.219 1.034-.825 1.034-1.836 1.86-2.964 2.424h-.001zm12.742-.012c-.678.443-.678.947-.132.96.94-.123 2.056-.209 2.822-1.513.27-.614.427-1.284.46-1.969a41.87 41.87 0 0 0-.514-8.786c-.022-.246-.12-.824-.088-.898.066-.172.372.012.481-.185.153-.185-.798-1.563-1.138-2.153-.109-.271-.153-.443-.361.025a3.05 3.05 0 0 0-.196 1.673c.503 3.814.875 6.669.951 10.041-.044.32-.054.492-.186.898-.295.418-.623.96-.93 1.218-.306.246-.963.492-1.17.689h0z"/><path d="M60.014 27.526l-.011-2.338c-.007-.573-.119-1.139-.328-1.661-.196-.505-.076-.911-.175-1.452-.087-.541-.066-1.354-.196-1.981-.044-.246-.153-1.046-.12-1.132.054-.172.262 0 .372-.197.153-.185-.547-2.215-.897-2.793-.12-.259-.361-.172-.635.246-.274.283-.175.91-.066 1.514.668 3.974 1.181 7.58 1.072 11.357-.044.32.984-.96.984-1.563h0zm-4.998-4.922c-.427-.025-1.313-.947-1.575-1.476a1.09 1.09 0 0 1 .044-.8c.164-.123.404-.246.59-.123 0 0 .186.295.153.332.219.123.328.061.35-.049.011-.184-.066-.295-.066-.492.099-.566.656-.652.875-.295.153.222.219.677.229.984 0 .16-.219-.025-.361 0-.12.049-.153.221-.164.369l-.076 1.538v.012h0zm-7.853 5.906c.109-1.206-.043-3.359-.055-4.073-.059-1.835-.193-3.667-.404-5.488-.132-1.034.371.111.306-.492-.164-1.021-.668-1.723-1.268-2.645-.186-.308-.186-.369-.481.074-.328.825-.044 1.403.044 2.055a43.6 43.6 0 0 1 .798 5.992 54.45 54.45 0 0 1 .044 6.029c.328.012.831-.578 1.017-1.452h.001z"/><path d="M61.469 26.578c-.755-1.427-1.881-2.953-2.188-3.531l-3.194-4.651c-.93-1.107.437-.184-.175-1.046-.514-.628-.656-.837-1.105-1.218-.219-.16-.35-.467-.437.062a11.48 11.48 0 0 0-.021 1.378c0 .209.196.615.371.861 2.264 3.138 4.747 6.337 6.738 10.36.284-.16.186-1.969 0-2.215h.011 0z"/></g><path d="M27.41 23.957c-.054.111-.175.246-.131.381.076.123.153.16.284.16.12 0 .295.037.328-.037a.49.49 0 0 0 .066-.406c-.132-.369-.481-.221-.547-.098h-.001z" fill="#006c35"/><path d="M52.742 44.605l2.548.172 1.05-.123c1.159-.123 1.204 1.858 1.204 1.858 0 1.169-.404 1.23-.919 1.353-.295.049-.437-.197-.602-.443-.247.089-.511.106-.765.049l-1.258-.061c-.437-.037-.678.061-1.126.012-.087.16-.219.382-.481.32-.219-.037-.492-.738-.416-1.292.163-.394.109-.258.109-.431-4.113-.123-8.258-.332-12.283-.271-3.15.012-6.256.16-9.373.308-1.662-.024-2.931-.32-3.806-1.759.087 0 4.244.258 5.458.172 2.242-.025 4.299-.234 6.584-.307 4.506.086 8.979.086 13.486.443-.437-.332-.437-1.107.219-1.304.054-.049.087.381.186.369.536-.037.295.775.186.935h0zM34.629 16.649c-.678 2.19.394 4.602 1.138 4.368.547.246.875-.911 1.093-2.166.165-.357.274-.394.35-.209-.022 1.673.109 2.055.492 2.559.853.738 1.565.099 1.619.037l.656-.75c.153-.185.35-.185.558-.037.208.209.175.566.612.812.372.172 1.148.049 1.334-.308.241-.48.307-.64.416-.812.175-.258.47-.148.47-.062-.033.148-.208.283-.087.554.219.172.262.061.383.024.437-.246.765-1.304.765-1.304.011-.394-.186-.369-.317-.271l-.34.258c-.219.037-.623.197-.831-.16-.208-.418-.208-1.021-.361-1.452 0-.025-.284-.677-.022-.714.132.025.404.111.449-.148.132-.258-.284-.984-.58-1.354-.252-.308-.602-.344-.94-.025-.241.246-.208.517-.252.775-.042.185-.044.379-.005.565s.115.36.224.506c.241.517.668 1.193.525 2.153 0 0-.252.443-.689.381-.186-.037-.481-.123-.635-1.452-.121-.984.021-2.387-.35-3.039-.142-.406-.241-.787-.569-.111-.088.271-.47.677-.197 1.501.259.743.334 1.551.219 2.338-.163.271-.196.357-.404.615-.285.369-.602.271-.842.135-.219-.16-.394-.246-.503-.8.022-.861.066-2.276-.076-2.572-.208-.468-.547-.295-.689-.148-.651.813-1.086 1.815-1.258 2.892-.197.714-.404.505-.547.221-.35-.369-.383-3.285-.81-2.805l-.001.005zm2.056 4.774c.317-.246.175-.418.635.098.593 1.18.937 2.498 1.006 3.851-.022.32.175.517.274.443.044-.738 1.652-1.772 3.128-1.92.219-.061.109-.541.142-.788-.088-.923.46-1.759 1.225-1.821 1.05.172 1.4.8 1.421 1.747-.12 1.846-1.827 2.153-2.778 2.301-.142.062-.208.135 0 .222l4.003.024.208.123c.022.123-.066.025-.219.32-.22.435-.358.917-.404 1.415-1.192.443-2.428.615-3.675.8-.437.246-.656.578-.569.948.153.406 1.115.824 1.115.837.186.123.394.431-.054 1.058-1.947-.099-3.468-1.034-3.992-2.35-.153-.135-.328 0-.437.172-.765 1.107-1.509 2.092-2.811 2.633a1.78 1.78 0 0 1-1.936-.701c-.252-.332-.241-.689-.328-.763-.427.209-4.036 1.932-3.577 1.12.875-1.046 2.406-1.833 3.741-2.867.099-.357.274-1.538.798-1.92.033 0-.077.689-.066.984 0 .246-.022.332.022.271.099-.062 1.717-1.501 1.86-1.944.153-.246.033-.886.033-.91-.306-.886-.733-.96-.886-1.403-.142-.578-.076-1.243.219-1.439.262-.258.569-.234.864.061.328.332.612.984.7 1.464-.055.184-.437-.123-.547-.037.21.272.35.604.404.96.219 1.009.153 1.403-.066 2.055-.722 1.71-1.641 2.215-2.45 2.855-.022 0-.033.431.262.665.109.123.536.185 1.028 0 1.052-.657 1.902-1.656 2.439-2.867a7.01 7.01 0 0 0-.262-2.732c-.317-.824-.689-1.993-.689-2.018-.011-.517.022-.689.219-.947h-.001zm-10.478-4.75c.46.246 1.334.135 1.291-.701l-.021-.381c-.087-.246-.35-.184-.404.062-.022.086.033.221-.033.258-.043.049-.186.024-.186-.209 0-.074-.043-.148-.076-.197-.022-.025-.044-.025-.099-.025-.066 0-.066.012-.099.074-.011.062-.033.123-.033.197 0 .086-.044.111-.088.123-.066 0-.054 0-.109-.025-.022-.037-.054-.049-.054-.123l-.033-.197c-.022-.037-.066-.061-.109-.074-.252 0-.274.332-.252.455-.021.024-.033.603.307.763h-.001zm13.509 6.423c.459.246 1.564.111 1.291-.689l-.022-.394c-.099-.246-.35-.185-.404.074-.022.074.033.209-.044.246-.033.049-.186.025-.175-.197-.007-.076-.034-.149-.076-.209-.033-.012-.044-.025-.109-.025-.055 0-.055.025-.088.086a.57.57 0 0 0-.033.197c-.011.074-.044.098-.099.123-.055 0-.044 0-.088-.037-.033-.037-.066-.049-.066-.111l-.033-.197c-.022-.037-.066-.062-.109-.074-.252 0-.273.32-.262.443-.011.025-.022.615.328.763h-.011l.001.001zm7.875-2.658c.46.246 1.324.135 1.291-.689l-.022-.394c-.099-.246-.35-.185-.404.061-.022.086.033.222-.044.271-.033.037-.186.012-.175-.222 0-.074-.044-.148-.077-.197-.033-.025-.044-.025-.109-.025-.054 0-.054.025-.087.086l-.033.184c-.011.086-.044.123-.099.123s-.043 0-.087-.025c-.033-.037-.066-.049-.066-.111s-.011-.16-.033-.209c-.022-.037-.066-.049-.109-.062-.252 0-.274.32-.262.443-.011.025-.021.603.328.763h-.011v.003zm4.08 6.681c-.798 1.021-.449 2.707-.262 3.076.262.591.47.972.984 1.268.47.381.843.148 1.039-.123.47-.554.481-1.969.7-2.239.153-.517.547-.431.732-.197a1.88 1.88 0 0 0 .678.652c.437.431.963.517 1.487.123.35-.234.58-.517.788-1.095.219-.689.109-3.888.055-5.783l-.459-2.646c0-.025-.055-1.255-.109-1.538 0-.123-.033-.16.077-.148.121.123.132.123.219.16.109.025.219-.209.142-.406l-1.093-2.289c-.088-.098-.208-.197-.35.025-.084.085-.151.19-.196.307s-.068.243-.067.37l.142 1.637.437 2.781.317 5.574c-.022.837-.252 1.563-.47 1.673 0 0-.328.209-.547-.025-.164-.074-.81-1.218-.81-1.218-.328-.332-.547-.246-.777 0-.656.714-.94 2.018-1.389 2.928-.109.209-.437.369-.788-.012-.897-1.39-.372-3.359-.481-2.855h.001zm-3.872-11.53c.416.184.7 1.132.612 1.6-.087.554-.307 1.169-.46 1.095-.175-.074.109-.566-.055-1.083-.087-.345-.656-.96-.59-1.132-.109-.381.241-.554.492-.492v.012h0zm5.206 12.096c.076-1.132-.066-1.821-.088-2.486s-.668-5.734-.798-6.226c-.164-.96.623-.123.536-.689-.274-.689-.94-1.71-1.148-2.313-.132-.246-.076-.492-.361-.061-.245.755-.331 1.564-.252 2.363.678 3.974 1.367 7.272 1.258 11.049.328 0 .689-.824.853-1.636v-.001zm7.044-10.496c.383.209.602 1.39.558 1.723-.076.615-.274 1.28-.416 1.194-.164-.074.033-.911-.044-1.169-.088-.369-.602-1.034-.547-1.23-.109-.418.219-.591.448-.517v-.001zM32.08 25.544c.361.16.58 1.021.547 1.267-.088.455-.274.947-.416.874-.142-.049.033-.664-.033-.861-.033-.455-.536-.701-.525-.898-.087-.369.219-.431.437-.381h-.011l.001-.001z" fill="#fff"/><path d="M40.787 26.849c.46.025.689.443.262.615-.437.16-.842.295-.853.984.165.984-.219.64-.437.517-.262-.221-1.006-.738-1.116-1.846a.46.46 0 0 1 .47-.492c.437.135 1.093.148 1.674.221v.001z" fill="#006c35"/><path d="M22.466 15.307c.525.172.558 1.058.525 1.316-.077.468-.262.972-.394.911-.153-.062 0-.701-.076-.898-.076-.271-.525-.787-.481-.935-.099-.308.219-.455.427-.394h0zm10.489 4.134c-.416.246-.569.984-.317 1.427.241.369.612.234.656.234.404.049.645-.849.645-.849s.011-.246-.46.234c-.208.037-.219-.049-.274-.172a1.23 1.23 0 0 1 .055-.701c.076-.221-.076-.32-.307-.172l.001-.001zm3.062-4.479c-.219.16-.623.64-.635 1.181-.011.308-.066.308.109.492.142.221.262.209.525.049.065-.046.121-.107.164-.179a.68.68 0 0 0 .087-.239c.066-.345-.328.172-.372-.221-.088-.369.165-.517.404-.861 0-.246 0-.406-.295-.222h.011 0zm2.45.492c-.096.448-.155.906-.175 1.366-.066.345.328.492.492.049.262-.8.262-1.144.284-1.477-.076-.529-.394-.517-.602.062h0zm15.532 8.896c.044-.062 2.188-1.772 2.188-1.772.219-.086.164.886.066.874a8.57 8.57 0 0 1-2.264 1.76c-.109.086-.208-.652 0-.861h.011v-.001zm1.936-.025c.383.209.536 1.452.492 1.784 0 .664-.361 1.181-.514 1.107-.153-.086.022-.824-.054-1.083-.088-.369-.404-1.046-.35-1.243-.109-.418.197-.64.437-.566h-.011l-.001.001zm-12.687 5.34c.178-.233.384-.436.612-.603.219-.123.416.098.404.086.033.246-.132.455-.076.775.044.123.076.271.284.221.339-.308.656-.332.984-.345.274.012.285.517.109.517-.623.148-.897.345-1.346.529-.06.045-.133.064-.205.055a.3.3 0 0 1-.189-.104c0-.012-.12-.135-.043-.455.022-.246-.066-.394-.262-.369-.132.098-.262.148-.328-.037-.033-.123-.043-.197.054-.271l.001.001zm14.94.665c.088.123.153.246-.011.468l-.404.394c-.066.123-.109.345.109.406.394.123 1.313-.554 1.313-.566.153-.123.109-.369.088-.369-.088-.111-.284-.037-.416-.061-.066 0-.273-.025-.175-.246a1.46 1.46 0 0 0 .175-.357c.055-.148 0-.246-.219-.332-.229-.049-.328-.024-.58 0-.132.025-.175.098-.208.283.011.283.164.271.328.369v.012-.001z" fill="#fff"/><path d="M43.324 23.342c-.055.123-.252.123-.437 0s-.295-.32-.229-.431.252-.111.437 0 .284.32.229.431zm-9.734-6.595c-.109.037-.262-.074-.328-.246s-.033-.32.076-.357.252.086.328.246.033.332-.088.369l.011-.012h.001zm19.261 29.396l3.008.062c.186.185.055.615-.066.591l-.853-.037c-.011-.369-.842-.308-.82.012-.449.062-.853-.012-1.313-.037-.132-.184-.109-.517.044-.591h.001z" fill="#006c35"/></svg>
